<mxfile host="drawio-plugin" modified="2021-10-28T11:05:48.045Z" agent="5.0 (X11; Linux x86_64) AppleWebKit/537.36 (KHTML, like Gecko) Chrome/89.0.4389.114 Safari/537.36" etag="w_9YupZ4_BzRejSDR0Fe" version="14.7.4" type="embed"><diagram id="C5RBs43oDa-KdzZeNtuy" name="Page-1"><mxGraphModel dx="586" dy="318" grid="1" gridSize="12" guides="1" tooltips="1" connect="1" arrows="1" fold="1" page="1" pageScale="1" pageWidth="1169" pageHeight="827" math="0" shadow="0"><root><mxCell id="WIyWlLk6GJQsqaUBKTNV-0"/><mxCell id="WIyWlLk6GJQsqaUBKTNV-1" parent="WIyWlLk6GJQsqaUBKTNV-0"/><mxCell id="rQrhhi6lgaTNtGIW33q6-0" value="ClientCode" style="swimlane;fontStyle=0;childLayout=stackLayout;horizontal=1;startSize=26;fillColor=none;horizontalStack=0;resizeParent=1;resizeParentMax=0;resizeLast=0;collapsible=1;marginBottom=0;" parent="WIyWlLk6GJQsqaUBKTNV-1" vertex="1"><mxGeometry x="72" y="48" width="140" height="52" as="geometry"/></mxCell><mxCell id="rQrhhi6lgaTNtGIW33q6-1" value="+ businessCode: void" style="text;strokeColor=none;fillColor=none;align=left;verticalAlign=top;spacingLeft=4;spacingRight=4;overflow=hidden;rotatable=0;points=[[0,0.5],[1,0.5]];portConstraint=eastwest;" parent="rQrhhi6lgaTNtGIW33q6-0" vertex="1"><mxGeometry y="26" width="140" height="26" as="geometry"/></mxCell><mxCell id="0" value="«interface»&lt;br&gt;&lt;i&gt;CommandInterface&lt;/i&gt;" style="html=1;" vertex="1" parent="WIyWlLk6GJQsqaUBKTNV-1"><mxGeometry x="694" y="94" width="110" height="50" as="geometry"/></mxCell><mxCell id="1" value="CommandBoldText" style="swimlane;fontStyle=1;align=center;verticalAlign=top;childLayout=stackLayout;horizontal=1;startSize=26;horizontalStack=0;resizeParent=1;resizeParentMax=0;resizeLast=0;collapsible=1;marginBottom=0;" vertex="1" parent="WIyWlLk6GJQsqaUBKTNV-1"><mxGeometry x="569" y="234" width="160" height="86" as="geometry"/></mxCell><mxCell id="2" value="- str: string" style="text;strokeColor=none;fillColor=none;align=left;verticalAlign=top;spacingLeft=4;spacingRight=4;overflow=hidden;rotatable=0;points=[[0,0.5],[1,0.5]];portConstraint=eastwest;" vertex="1" parent="1"><mxGeometry y="26" width="160" height="26" as="geometry"/></mxCell><mxCell id="3" value="" style="line;strokeWidth=1;fillColor=none;align=left;verticalAlign=middle;spacingTop=-1;spacingLeft=3;spacingRight=3;rotatable=0;labelPosition=right;points=[];portConstraint=eastwest;" vertex="1" parent="1"><mxGeometry y="52" width="160" height="8" as="geometry"/></mxCell><mxCell id="4" value="+ execute(): string" style="text;strokeColor=none;fillColor=none;align=left;verticalAlign=top;spacingLeft=4;spacingRight=4;overflow=hidden;rotatable=0;points=[[0,0.5],[1,0.5]];portConstraint=eastwest;" vertex="1" parent="1"><mxGeometry y="60" width="160" height="26" as="geometry"/></mxCell><mxCell id="6" value="" style="endArrow=block;dashed=1;endFill=0;endSize=12;html=1;entryX=0.5;entryY=1;entryDx=0;entryDy=0;exitX=0.5;exitY=0;exitDx=0;exitDy=0;" edge="1" parent="WIyWlLk6GJQsqaUBKTNV-1" source="1" target="0"><mxGeometry width="160" relative="1" as="geometry"><mxPoint x="654" y="234" as="sourcePoint"/><mxPoint x="814" y="234" as="targetPoint"/><Array as="points"><mxPoint x="649" y="204"/><mxPoint x="749" y="204"/></Array></mxGeometry></mxCell><mxCell id="15" value="CommandItalic" style="swimlane;fontStyle=1;align=center;verticalAlign=top;childLayout=stackLayout;horizontal=1;startSize=26;horizontalStack=0;resizeParent=1;resizeParentMax=0;resizeLast=0;collapsible=1;marginBottom=0;" vertex="1" parent="WIyWlLk6GJQsqaUBKTNV-1"><mxGeometry x="754" y="234" width="160" height="112" as="geometry"/></mxCell><mxCell id="24" value="- receiver: ReceiverDB" style="text;strokeColor=none;fillColor=none;align=left;verticalAlign=top;spacingLeft=4;spacingRight=4;overflow=hidden;rotatable=0;points=[[0,0.5],[1,0.5]];portConstraint=eastwest;" vertex="1" parent="15"><mxGeometry y="26" width="160" height="26" as="geometry"/></mxCell><mxCell id="41" value="- str: string" style="text;strokeColor=none;fillColor=none;align=left;verticalAlign=top;spacingLeft=4;spacingRight=4;overflow=hidden;rotatable=0;points=[[0,0.5],[1,0.5]];portConstraint=eastwest;" vertex="1" parent="15"><mxGeometry y="52" width="160" height="26" as="geometry"/></mxCell><mxCell id="17" value="" style="line;strokeWidth=1;fillColor=none;align=left;verticalAlign=middle;spacingTop=-1;spacingLeft=3;spacingRight=3;rotatable=0;labelPosition=right;points=[];portConstraint=eastwest;" vertex="1" parent="15"><mxGeometry y="78" width="160" height="8" as="geometry"/></mxCell><mxCell id="18" value="+ execute(): string" style="text;strokeColor=none;fillColor=none;align=left;verticalAlign=top;spacingLeft=4;spacingRight=4;overflow=hidden;rotatable=0;points=[[0,0.5],[1,0.5]];portConstraint=eastwest;" vertex="1" parent="15"><mxGeometry y="86" width="160" height="26" as="geometry"/></mxCell><mxCell id="19" value="" style="endArrow=none;dashed=1;html=1;exitX=0.5;exitY=0;exitDx=0;exitDy=0;" edge="1" parent="WIyWlLk6GJQsqaUBKTNV-1" source="15"><mxGeometry width="50" height="50" relative="1" as="geometry"><mxPoint x="794" y="234" as="sourcePoint"/><mxPoint x="734" y="204" as="targetPoint"/><Array as="points"><mxPoint x="834" y="204"/></Array></mxGeometry></mxCell><mxCell id="20" value="User" style="swimlane;fontStyle=1;align=center;verticalAlign=top;childLayout=stackLayout;horizontal=1;startSize=26;horizontalStack=0;resizeParent=1;resizeParentMax=0;resizeLast=0;collapsible=1;marginBottom=0;" vertex="1" parent="WIyWlLk6GJQsqaUBKTNV-1"><mxGeometry x="312" y="24" width="248" height="168" as="geometry"/></mxCell><mxCell id="21" value="- comBoltText: CommandBoldText" style="text;strokeColor=none;fillColor=none;align=left;verticalAlign=top;spacingLeft=4;spacingRight=4;overflow=hidden;rotatable=0;points=[[0,0.5],[1,0.5]];portConstraint=eastwest;" vertex="1" parent="20"><mxGeometry y="26" width="248" height="26" as="geometry"/></mxCell><mxCell id="34" value="- commandItalic: CommandItalic" style="text;strokeColor=none;fillColor=none;align=left;verticalAlign=top;spacingLeft=4;spacingRight=4;overflow=hidden;rotatable=0;points=[[0,0.5],[1,0.5]];portConstraint=eastwest;" vertex="1" parent="20"><mxGeometry y="52" width="248" height="26" as="geometry"/></mxCell><mxCell id="22" value="" style="line;strokeWidth=1;fillColor=none;align=left;verticalAlign=middle;spacingTop=-1;spacingLeft=3;spacingRight=3;rotatable=0;labelPosition=right;points=[];portConstraint=eastwest;" vertex="1" parent="20"><mxGeometry y="78" width="248" height="8" as="geometry"/></mxCell><mxCell id="23" value="+ boldText(string): string" style="text;strokeColor=none;fillColor=none;align=left;verticalAlign=top;spacingLeft=4;spacingRight=4;overflow=hidden;rotatable=0;points=[[0,0.5],[1,0.5]];portConstraint=eastwest;" vertex="1" parent="20"><mxGeometry y="86" width="248" height="30" as="geometry"/></mxCell><mxCell id="42" value="+ italicText(string): string" style="text;strokeColor=none;fillColor=none;align=left;verticalAlign=top;spacingLeft=4;spacingRight=4;overflow=hidden;rotatable=0;points=[[0,0.5],[1,0.5]];portConstraint=eastwest;" vertex="1" parent="20"><mxGeometry y="116" width="248" height="26" as="geometry"/></mxCell><mxCell id="33" value="+ addDBdataToString(string): string" style="text;strokeColor=none;fillColor=none;align=left;verticalAlign=top;spacingLeft=4;spacingRight=4;overflow=hidden;rotatable=0;points=[[0,0.5],[1,0.5]];portConstraint=eastwest;" vertex="1" parent="20"><mxGeometry y="142" width="248" height="26" as="geometry"/></mxCell><mxCell id="25" value="ReceiverDB" style="swimlane;fontStyle=1;align=center;verticalAlign=top;childLayout=stackLayout;horizontal=1;startSize=26;horizontalStack=0;resizeParent=1;resizeParentMax=0;resizeLast=0;collapsible=1;marginBottom=0;" vertex="1" parent="WIyWlLk6GJQsqaUBKTNV-1"><mxGeometry x="888" y="456" width="160" height="60" as="geometry"/></mxCell><mxCell id="27" value="" style="line;strokeWidth=1;fillColor=none;align=left;verticalAlign=middle;spacingTop=-1;spacingLeft=3;spacingRight=3;rotatable=0;labelPosition=right;points=[];portConstraint=eastwest;" vertex="1" parent="25"><mxGeometry y="26" width="160" height="8" as="geometry"/></mxCell><mxCell id="28" value="+ doSum(in int, in int): int" style="text;strokeColor=none;fillColor=none;align=left;verticalAlign=top;spacingLeft=4;spacingRight=4;overflow=hidden;rotatable=0;points=[[0,0.5],[1,0.5]];portConstraint=eastwest;" vertex="1" parent="25"><mxGeometry y="34" width="160" height="26" as="geometry"/></mxCell><mxCell id="29" value="name" style="endArrow=block;endFill=1;html=1;edgeStyle=orthogonalEdgeStyle;align=left;verticalAlign=top;entryX=0;entryY=0.25;entryDx=0;entryDy=0;exitX=1.01;exitY=0.416;exitDx=0;exitDy=0;exitPerimeter=0;" edge="1" parent="WIyWlLk6GJQsqaUBKTNV-1" source="18" target="25"><mxGeometry x="-1" relative="1" as="geometry"><mxPoint x="914" y="333" as="sourcePoint"/><mxPoint x="900" y="516" as="targetPoint"/><Array as="points"><mxPoint x="960" y="331"/><mxPoint x="960" y="420"/><mxPoint x="782" y="420"/><mxPoint x="782" y="471"/></Array></mxGeometry></mxCell><mxCell id="30" value="1" style="edgeLabel;resizable=0;html=1;align=left;verticalAlign=bottom;" connectable="0" vertex="1" parent="29"><mxGeometry x="-1" relative="1" as="geometry"/></mxCell><mxCell id="35" value="name" style="endArrow=block;endFill=1;html=1;edgeStyle=orthogonalEdgeStyle;align=left;verticalAlign=top;entryX=0;entryY=0.75;entryDx=0;entryDy=0;" edge="1" parent="WIyWlLk6GJQsqaUBKTNV-1" source="34" target="0"><mxGeometry x="-1" relative="1" as="geometry"><mxPoint x="414" y="129" as="sourcePoint"/><mxPoint x="574" y="129" as="targetPoint"/></mxGeometry></mxCell><mxCell id="36" value="1" style="edgeLabel;resizable=0;html=1;align=left;verticalAlign=bottom;" connectable="0" vertex="1" parent="35"><mxGeometry x="-1" relative="1" as="geometry"/></mxCell><mxCell id="37" value="name" style="endArrow=block;endFill=1;html=1;edgeStyle=orthogonalEdgeStyle;align=left;verticalAlign=top;entryX=0;entryY=-0.231;entryDx=0;entryDy=0;entryPerimeter=0;" edge="1" parent="WIyWlLk6GJQsqaUBKTNV-1" source="rQrhhi6lgaTNtGIW33q6-1" target="21"><mxGeometry x="-1" relative="1" as="geometry"><mxPoint x="212" y="87" as="sourcePoint"/><mxPoint x="372" y="87" as="targetPoint"/></mxGeometry></mxCell><mxCell id="38" value="1" style="edgeLabel;resizable=0;html=1;align=left;verticalAlign=bottom;" connectable="0" vertex="1" parent="37"><mxGeometry x="-1" relative="1" as="geometry"/></mxCell><mxCell id="39" value="name" style="endArrow=block;endFill=1;html=1;edgeStyle=orthogonalEdgeStyle;align=left;verticalAlign=top;exitX=0.5;exitY=1;exitDx=0;exitDy=0;entryX=0;entryY=0.5;entryDx=0;entryDy=0;" edge="1" parent="WIyWlLk6GJQsqaUBKTNV-1" source="rQrhhi6lgaTNtGIW33q6-0" target="28"><mxGeometry x="-1" relative="1" as="geometry"><mxPoint x="168" y="228" as="sourcePoint"/><mxPoint x="528" y="516" as="targetPoint"/></mxGeometry></mxCell><mxCell id="40" value="1" style="edgeLabel;resizable=0;html=1;align=left;verticalAlign=bottom;" connectable="0" vertex="1" parent="39"><mxGeometry x="-1" relative="1" as="geometry"/></mxCell></root></mxGraphModel></diagram></mxfile>